<svg viewBox="0 0 400 300" xmlns="http://www.w3.org/2000/svg"><line x1="20" y1="270" x2="380" y2="270" stroke="#211e18" stroke-width="1.5" stroke-linecap="round" fill="none"/><circle cx="200" cy="120" r="80" stroke="#211e18" stroke-width="3" fill="none"/><circle cx="170" cy="90" r="8" stroke="#211e18" stroke-width="2" fill="none"/><circle cx="230" cy="100" r="12" stroke="#211e18" stroke-width="2" fill="none"/><circle cx="200" cy="140" r="5" stroke="#211e18" stroke-width="2" fill="none"/><ellipse cx="200" cy="170" rx="30" ry="20" stroke="#211e18" stroke-width="3" fill="none"/><circle cx="190" cy="162" r="3" stroke="#211e18" stroke-width="2" fill="none"/><circle cx="210" cy="162" r="3" stroke="#211e18" stroke-width="2" fill="none"/><path d="M194 172 Q200 178 206 172" stroke="#211e18" stroke-width="2" stroke-linecap="round" fill="none"/><line x1="180" y1="185" x2="170" y2="210" stroke="#211e18" stroke-width="2" stroke-linecap="round" fill="none"/><line x1="220" y1="185" x2="230" y2="210" stroke="#211e18" stroke-width="2" stroke-linecap="round" fill="none"/><path d="M200 190 L200 230" stroke="#211e18" stroke-width="2" stroke-linecap="round" fill="none"/><ellipse cx="190" cy="230" rx="6" ry="8" stroke="#211e18" stroke-width="2" fill="none"/><ellipse cx="210" cy="230" rx="6" ry="8" stroke="#211e18" stroke-width="2" fill="none"/><path d="M170 120 Q160 100 150 110" stroke="#211e18" stroke-width="2" stroke-linecap="round" fill="none"/><path d="M230 120 Q240 100 250 110" stroke="#211e18" stroke-width="2" stroke-linecap="round" fill="none"/></svg>